<svg data-layer-type="text" y="344" viewBox="5.130000114440918 19.690000534057617 256.82000732421875 53.36000061035156" x="159.08999145507812" height="53.36000061035156" width="256.82000732421875" style="position: absolute;"><g data-horizontal-grow="center" style="fill: rgb(2, 24, 33); font-size: 57.1199px; font-weight: 700; font-style: normal; font-family: &quot;Open Sans&quot;; dominant-baseline: hanging; text-transform: uppercase; fill-opacity: 1;"><path d="M13.78 61.05L5.13 61.05L5.13 20.28L13.78 20.28L13.78 61.05ZM60.22 20.28L60.22 61.05L49.23 61.05L31.49 30.21L31.24 30.21Q31.35 32.13 31.43 34.08Q31.52 36.03 31.60 37.97Q31.68 39.91 31.77 41.86L31.77 41.86L31.77 61.05L24.04 61.05L24.04 20.28L34.95 20.28L52.66 50.82L52.85 50.82Q52.80 48.92 52.71 47.05Q52.63 45.18 52.56 43.31Q52.49 41.45 52.43 39.58L52.43 39.58L52.43 20.28L60.22 20.28ZM93.74 20.28L102.47 20.28L88.61 61.05L79.18 61.05L65.35 20.28L74.08 20.28L81.75 44.54Q81.94 45.15 82.39 46.84Q82.84 48.53 83.30 50.41Q83.76 52.29 83.92 53.52L83.92 53.52Q84.09 52.29 84.52 50.43Q84.95 48.56 85.39 46.87Q85.82 45.18 86.01 44.54L86.01 44.54L93.74 20.28ZM131.09 53.91L131.09 61.05L107.60 61.05L107.60 20.28L131.09 20.28L131.09 27.36L116.25 27.36L116.25 36.31L130.05 36.31L130.05 43.40L116.25 43.40L116.25 53.91L131.09 53.91ZM163.66 49.73L163.66 49.73Q163.66 53.35 161.90 56.03Q160.15 58.71 156.79 60.16Q153.43 61.61 148.63 61.61L148.63 61.61Q146.51 61.61 144.49 61.33Q142.47 61.05 140.61 60.51Q138.76 59.96 137.08 59.16L137.08 59.16L137.08 51.12Q139.98 52.41 143.11 53.44Q146.23 54.47 149.30 54.47L149.30 54.47Q151.42 54.47 152.71 53.91Q154.01 53.35 154.60 52.38Q155.18 51.40 155.18 50.15L155.18 50.15Q155.18 48.61 154.15 47.53Q153.12 46.44 151.32 45.49Q149.52 44.54 147.26 43.45L147.26 43.45Q145.84 42.78 144.17 41.82Q142.49 40.86 140.99 39.47Q139.48 38.07 138.52 36.08Q137.56 34.08 137.56 31.29L137.56 31.29Q137.56 27.64 139.23 25.05Q140.90 22.45 144.01 21.07Q147.12 19.69 151.36 19.69L151.36 19.69Q154.54 19.69 157.43 20.43Q160.32 21.17 163.47 22.56L163.47 22.56L160.68 29.29Q157.86 28.14 155.63 27.51Q153.40 26.89 151.08 26.89L151.08 26.89Q149.47 26.89 148.32 27.40Q147.18 27.92 146.59 28.85Q146.01 29.79 146.01 31.01L146.01 31.01Q146.01 32.46 146.86 33.45Q147.71 34.44 149.42 35.37Q151.14 36.29 153.70 37.51L153.70 37.51Q156.83 38.99 159.05 40.59Q161.26 42.20 162.46 44.36Q163.66 46.52 163.66 49.73ZM166.79 73.05L166.79 73.05Q165.11 73.05 163.84 72.86Q162.57 72.68 161.68 72.43L161.68 72.43L161.68 65.24Q162.57 65.43 163.59 65.61Q164.61 65.79 165.75 65.79L165.75 65.79Q167.26 65.79 168.46 65.22Q169.66 64.65 170.36 63.06Q171.05 61.47 171.05 58.49L171.05 58.49L171.05 20.28L179.70 20.28L179.70 58.43Q179.70 63.67 178.07 66.90Q176.44 70.12 173.52 71.58Q170.61 73.05 166.79 73.05ZM224.24 61.05L214.92 61.05L211.97 51.35L197.10 51.35L194.15 61.05L184.83 61.05L199.22 20.11L209.79 20.11L224.24 61.05ZM199.28 44.10L209.90 44.10L206.95 34.61Q206.67 33.66 206.21 32.17Q205.75 30.68 205.29 29.13Q204.83 27.58 204.55 26.44L204.55 26.44Q204.27 27.58 203.78 29.27Q203.29 30.96 202.85 32.46Q202.40 33.97 202.21 34.61L202.21 34.61L199.28 44.10ZM229.37 20.28L241.25 20.28Q246.80 20.28 250.42 21.62Q254.03 22.95 255.78 25.66Q257.54 28.36 257.54 32.49L257.54 32.49Q257.54 35.28 256.48 37.37Q255.42 39.47 253.69 40.92Q251.96 42.37 249.96 43.29L249.96 43.29L261.95 61.05L252.35 61.05L242.62 45.41L238.02 45.41L238.02 61.05L229.37 61.05L229.37 20.28ZM240.64 27.36L240.64 27.36L238.02 27.36L238.02 38.38L240.81 38.38Q245.10 38.38 246.96 36.94Q248.81 35.50 248.81 32.72L248.81 32.72Q248.81 29.82 246.82 28.59Q244.82 27.36 240.64 27.36Z" transform="translate(0, 0)"></path></g></svg>